<svg width="64" height="64" viewBox="0 0 64 64" fill="none" xmlns="http://www.w3.org/2000/svg">
  <rect width="64" height="64" rx="32" fill="url(#avatar2Grad)"/>
  <defs>
    <linearGradient id="avatar2Grad" x1="0" y1="0" x2="64" y2="64" gradientUnits="userSpaceOnUse">
      <stop offset="0%" stop-color="#11998e" />
      <stop offset="100%" stop-color="#38ef7d" />
    </linearGradient>
  </defs>
  <!-- Face/Skin -->
  <circle cx="32" cy="31" r="13" fill="#e0a96d" />
  <!-- Hair -->
  <path d="M19 24C19 16 25 14 32 14C39 14 45 16 45 24C45 25 43 21 32 21C21 21 19 25 19 24Z" fill="#1f1f1f" />
  <path d="M20 24C20 22 21 20 23 18C25 16 30 16 32 18C34 16 39 16 41 18C43 20 44 22 44 24H20Z" fill="#1f1f1f" />
  <!-- Glasses -->
  <rect x="22" y="27" width="8" height="6" rx="2" stroke="#1f1f1f" stroke-width="1.5" />
  <rect x="34" y="27" width="8" height="6" rx="2" stroke="#1f1f1f" stroke-width="1.5" />
  <line x1="30" y1="30" x2="34" y2="30" stroke="#1f1f1f" stroke-width="1.5" />
  <!-- Smile -->
  <path d="M29 36C30 37.5 31 38 32 38C33 38 34 37.5 35 36" stroke="#1f1f1f" stroke-width="1.5" stroke-linecap="round" />
  <!-- Neck -->
  <rect x="29" y="42" width="6" height="8" fill="#e0a96d" />
  <!-- Clothes -->
  <path d="M16 54C16 46 22 44 32 44C42 44 48 46 48 54V64H16V54Z" fill="#0f172a" />
</svg>
